<svg xmlns="http://www.w3.org/2000/svg" version="1.1" width="375" height="430">
<path d="M0 0 C5.36121044 1.40052628 8.72398008 6.12049425 12.32275391 10.09326172 C14.09103051 11.94845498 15.86442404 13.7987854 17.64306641 15.64404297 C18.48643555 16.52398926 19.32980469 17.40393555 20.19873047 18.31054688 C24.56307389 22.7385024 29.26645061 26.30649381 34.51025391 29.65576172 C35.12368652 30.04876465 35.73711914 30.44176758 36.36914062 30.84667969 C60.23710175 45.95745634 87.00946171 54.46609043 113.86352539 62.6237793 C136.44949498 69.53369817 161.159955 77.99099157 173.51025391 99.65576172 C183.3707868 118.6508987 176.18481449 136.75906456 170.44799805 155.86230469 C159.16876077 192.17195697 159.16876077 192.17195697 165.02197266 228.49951172 C166.33537389 230.540974 166.33537389 230.540974 167.51025391 231.65576172 C169.84322824 231.69669109 172.17730615 231.69817895 174.51025391 231.65576172 C174.50501709 230.5674707 174.49978027 229.47917969 174.49438477 228.35791016 C174.47608954 224.2651453 174.46473358 220.17238396 174.45532227 216.07958984 C174.45033749 214.31851592 174.44354725 212.55744604 174.43481445 210.79638672 C174.30842695 184.62673833 174.30842695 184.62673833 176.94775391 175.65576172 C177.19396484 174.78951172 177.44017578 173.92326172 177.69384766 173.03076172 C178.46683781 170.78206308 179.39032506 168.75017411 180.51025391 166.65576172 C182.36181641 166.85351562 182.36181641 166.85351562 184.51025391 167.65576172 C185.78369141 169.72753906 185.78369141 169.72753906 186.88525391 172.49169922 C187.30701904 173.52302979 187.72878418 174.55436035 188.16333008 175.61694336 C188.83005737 177.30678345 188.83005737 177.30678345 189.51025391 179.03076172 C190.48320189 181.4132178 191.45853987 183.79469899 192.43603516 186.17529297 C192.68662186 186.79027145 192.93720856 187.40524994 193.19538879 188.03886414 C195.89784232 194.65692993 198.78462126 201.19048923 201.69775391 207.71826172 C202.44641724 209.40520142 202.44641724 209.40520142 203.21020508 211.1262207 C205.4346393 216.1149576 207.69090726 221.07972588 210.08056641 225.99169922 C210.46317627 226.7805249 210.84578613 227.56935059 211.23999023 228.38208008 C211.93683926 229.80516049 212.6442185 231.22315754 213.36450195 232.63452148 C215.56913722 237.11729945 215.56913722 237.11729945 215.28564453 239.7097168 C213.90102136 243.18478963 210.30509392 244.59579802 207.19775391 246.40576172 C205.72427038 247.29501737 204.25161998 248.1856549 202.77978516 249.07763672 C202.05098145 249.51527344 201.32217773 249.95291016 200.57128906 250.40380859 C178.9413436 263.54268094 158.65508116 279.45267556 139.99853516 296.51123047 C138.51025391 297.65576172 138.51025391 297.65576172 136.51025391 297.65576172 C136.51025391 298.31576172 136.51025391 298.97576172 136.51025391 299.65576172 C134.97119141 301.17138672 134.97119141 301.17138672 132.88525391 302.90576172 C130.15813452 305.19519528 127.69558162 307.50414224 125.32275391 310.15576172 C123.93056641 311.39326172 123.93056641 311.39326172 122.51025391 312.65576172 C118.38162578 312.3663719 115.11563136 310.61269887 111.47900391 308.73388672 C110.27955229 308.12099376 109.08000361 307.50829074 107.88037109 306.89575195 C107.25110718 306.57178436 106.62184326 306.24781677 105.97351074 305.91403198 C95.18900566 300.37543123 84.32326244 295.05509669 73.26025391 290.09326172 C71.52437012 289.31450684 71.52437012 289.31450684 69.75341797 288.52001953 C62.94437628 285.50757936 56.08536393 282.66030648 49.16650391 279.90966797 C48.38180725 279.59549423 47.5971106 279.2813205 46.78863525 278.95762634 C42.93916686 277.41651179 39.08426426 275.89536602 35.21240234 274.41137695 C33.81657265 273.85823344 32.4210486 273.30431781 31.02587891 272.74951172 C30.05624207 272.39083763 30.05624207 272.39083763 29.0670166 272.0249176 C27.28466797 271.30224609 27.28466797 271.30224609 24.51025391 269.65576172 C22.96628993 265.92983856 23.64586829 262.79542963 24.47900391 258.92919922 C24.71659424 257.82431152 24.95418457 256.71942383 25.19897461 255.58105469 C25.46669678 254.40945801 25.73441895 253.23786133 26.01025391 252.03076172 C26.42247192 250.21729248 26.42247192 250.21729248 26.84301758 248.3671875 C31.5684152 228.29656375 39.33296274 209.41744486 51.51025391 192.65576172 C56.15577805 194.03953487 60.18860814 196.03162402 64.38525391 198.40576172 C77.58477125 205.63140217 95.63645308 214.29654138 110.94775391 211.15576172 C111.46337891 210.99076172 111.97900391 210.82576172 112.51025391 210.65576172 C112.92797195 207.32375987 112.92797195 207.32375987 112.51025391 203.65576172 C108.22738443 198.94185399 102.2786517 197.80436831 96.38525391 196.03076172 C80.2655597 190.90171261 66.0843501 184.08479417 53.51025391 172.65576172 C52.82189453 172.10791016 52.13353516 171.56005859 51.42431641 170.99560547 C47.05734667 167.48304286 43.61641489 163.50243392 40.19775391 159.09326172 C39.77679443 158.55088867 39.35583496 158.00851563 38.92211914 157.44970703 C35.7995089 153.30299128 32.91762232 149.15816771 32.07275391 143.96826172 C32.51025391 141.65576172 32.51025391 141.65576172 34.32275391 139.90576172 C36.51025391 138.65576172 36.51025391 138.65576172 39.51025391 137.65576172 C38.72521484 136.94291016 37.94017578 136.23005859 37.13134766 135.49560547 C19.26423137 119.23078075 19.26423137 119.23078075 14.51025391 111.65576172 C14.51025391 110.99576172 14.51025391 110.33576172 14.51025391 109.65576172 C13.85025391 109.65576172 13.19025391 109.65576172 12.51025391 109.65576172 C1.04489731 87.87361705 1.04489731 87.87361705 3.51025391 79.65576172 C4.83837891 77.89013672 4.83837891 77.89013672 6.51025391 76.65576172 C10.24011913 76.38934277 12.95671462 76.47124862 16.51025391 77.65576172 C16.15833984 77.19427734 15.80642578 76.73279297 15.44384766 76.25732422 C9.23057799 68.0486703 3.192577 59.85042259 -1.48974609 50.65576172 C-1.91126953 49.83720703 -2.33279297 49.01865234 -2.76708984 48.17529297 C-8.76167446 35.83993193 -14.01551794 19.13894099 -10.68505859 5.31591797 C-8.48646972 0.42297998 -4.90785923 -0.12004265 0 0 Z " fill="#CDBFA5" transform="translate(15.48974609375,5.34423828125)" stroke="black" stroke-width="1" />
<path d="M0 0 C1.59893797 2.02794474 2.97521204 4.00265838 4.3515625 6.17578125 C4.76989349 6.81557419 5.18822449 7.45536713 5.61923218 8.11454773 C6.96447602 10.17423665 8.29570532 12.24248824 9.625 14.3125 C27.03499777 41.30607168 44.92350026 58.49556069 76.29736328 67.98413086 C84.42047677 70.5183445 94.75694564 74.06733315 99 82 C100.90009351 88.717232 99.74740377 94.68635839 97 101 C93.0772473 107.30017858 87.0631111 110.30509927 80.16796875 112.61328125 C44.06662293 119.05298077 -6.1595298 99.70016513 -35.81445312 79.78125 C-42.61662768 74.9602182 -48.87685855 69.48664321 -54.9765625 63.8125 C-57.07089533 61.85019557 -57.07089533 61.85019557 -60 60 C-59.67 58.35 -59.34 56.7 -59 55 C-58.34 55 -57.68 55 -57 55 C-56.76869385 54.44370407 -56.5373877 53.88740814 -56.29907227 53.31425476 C-54.65070286 50.37773856 -52.5992836 48.35249266 -50.21484375 45.97192383 C-49.73008575 45.48526749 -49.24532776 44.99861115 -48.74588013 44.49720764 C-47.14792631 42.89555961 -45.54290484 41.30120796 -43.9375 39.70703125 C-42.82377269 38.59449642 -41.7104152 37.48159127 -40.59741211 36.36833191 C-38.26691562 34.03939784 -35.9331025 31.7138575 -33.59667969 29.39086914 C-30.59867884 26.40988734 -27.60733259 23.42233539 -24.61820984 20.43245411 C-22.3211595 18.13567533 -20.02151497 15.84150927 -17.72097778 13.5482235 C-16.61675031 12.44718227 -15.51313104 11.34553073 -14.41012573 10.24326515 C-12.87096924 8.70627099 -11.3285686 7.1726115 -9.78515625 5.63989258 C-8.90738525 4.76593338 -8.02961426 3.89197418 -7.12524414 2.99153137 C-4.44761482 0.48236892 -3.69704957 0 0 0 Z " fill="#CBBDA2" transform="translate(271,313)" stroke="black" stroke-width="1" />
<path d="M0 0 C3.78436528 1.46024932 5.00853175 3.21694492 6.875 6.76171875 C7.38546875 7.71626953 7.8959375 8.67082031 8.421875 9.65429688 C9.20304687 11.15573242 9.20304687 11.15573242 10 12.6875 C11.04117033 14.65000299 12.08282655 16.61224828 13.125 18.57421875 C13.61226563 19.50927246 14.09953125 20.44432617 14.6015625 21.40771484 C15.81750203 23.66170331 17.12640864 25.79811899 18.5 27.95703125 C20 31 20 31 19.66796875 33.07421875 C17.14750768 35.98425929 14.28410824 38.37489764 11.3125 40.8125 C6.30395081 45.00782014 1.49995921 49.25435336 -3 54 C-7.06137729 58.17114424 -11.34953582 62.04381154 -15.6953125 65.9140625 C-17.94557206 67.897039 -17.94557206 67.897039 -19.6796875 69.7734375 C-21 71 -21 71 -23 71 C-23 71.66 -23 72.32 -23 73 C-24.29296875 74.26953125 -24.29296875 74.26953125 -26.1875 75.8125 C-32.49522879 81.15418024 -38.20009963 87.12052783 -44 93 C-49.06780331 91.4187668 -52.66736488 88.32026566 -56.75 85.0625 C-63.49900592 79.75138067 -70.42366734 74.97706722 -77.81738281 70.60375977 C-79.87890625 69.33984375 -79.87890625 69.33984375 -83 67 C-83 63 -83 63 -80.32421875 60.30078125 C-79.12205633 59.2925486 -77.90904254 58.29716308 -76.6875 57.3125 C-76.0473999 56.78140625 -75.4072998 56.2503125 -74.74780273 55.703125 C-72.84047666 54.12458267 -70.92116241 52.56164964 -69 51 C-67.58847656 49.83017578 -67.58847656 49.83017578 -66.1484375 48.63671875 C-63.44758822 46.40505023 -60.72569611 44.20123967 -58 42 C-56.87229563 41.07824758 -55.7446972 40.15636554 -54.6171875 39.234375 C-42.13062045 29.07683879 -29.14736497 19.6146471 -15.69140625 10.78125 C-12.09882413 8.40357591 -8.57765125 5.9300329 -5.05859375 3.4453125 C-3.38888472 2.27303102 -1.69749927 1.13166618 0 0 Z " fill="#CDC0A6" transform="translate(239,263)" stroke="black" stroke-width="1" />
<path d="M0 0 C1.59893797 2.02794474 2.97521204 4.00265838 4.3515625 6.17578125 C4.76989349 6.81557419 5.18822449 7.45536713 5.61923218 8.11454773 C6.96447602 10.17423665 8.29570532 12.24248824 9.625 14.3125 C27.03499777 41.30607168 44.92350026 58.49556069 76.29736328 67.98413086 C84.42047677 70.5183445 94.75694564 74.06733315 99 82 C100.90009351 88.717232 99.74740377 94.68635839 97 101 C93.0772473 107.30017858 87.0631111 110.30509927 80.16796875 112.61328125 C44.06662293 119.05298077 -6.1595298 99.70016513 -35.81445312 79.78125 C-42.61662768 74.9602182 -48.87685855 69.48664321 -54.9765625 63.8125 C-57.07089533 61.85019557 -57.07089533 61.85019557 -60 60 C-59.67 58.35 -59.34 56.7 -59 55 C-58.34 55 -57.68 55 -57 55 C-56.76869385 54.44370407 -56.5373877 53.88740814 -56.29907227 53.31425476 C-54.65070286 50.37773856 -52.5992836 48.35249266 -50.21484375 45.97192383 C-49.73008575 45.48526749 -49.24532776 44.99861115 -48.74588013 44.49720764 C-47.14792631 42.89555961 -45.54290484 41.30120796 -43.9375 39.70703125 C-42.82377269 38.59449642 -41.7104152 37.48159127 -40.59741211 36.36833191 C-38.26691562 34.03939784 -35.9331025 31.7138575 -33.59667969 29.39086914 C-30.59867884 26.40988734 -27.60733259 23.42233539 -24.61820984 20.43245411 C-22.3211595 18.13567533 -20.02151497 15.84150927 -17.72097778 13.5482235 C-16.61675031 12.44718227 -15.51313104 11.34553073 -14.41012573 10.24326515 C-12.87096924 8.70627099 -11.3285686 7.1726115 -9.78515625 5.63989258 C-8.90738525 4.76593338 -8.02961426 3.89197418 -7.12524414 2.99153137 C-4.44761482 0.48236892 -3.69704957 0 0 0 Z M-4.6640625 3.50390625 C-5.31117188 4.18324219 -5.95828125 4.86257813 -6.625 5.5625 C-9.1900312 8.24793062 -11.83480354 10.74228634 -14.65112305 13.15771484 C-18.95493427 16.91042012 -23.01244032 20.86774734 -27.04296875 24.91015625 C-27.77445633 25.6406871 -28.50594391 26.37121796 -29.25959778 27.12388611 C-30.7927015 28.65631424 -32.32456287 30.18998621 -33.85522461 31.72485352 C-36.18816666 34.0631682 -38.52642072 36.39607542 -40.86523438 38.72851562 C-42.36230002 40.22624186 -43.85905555 41.72427815 -45.35546875 43.22265625 C-46.04827438 43.91343765 -46.74108002 44.60421906 -47.45487976 45.31593323 C-51.18531118 49.06433074 -54.68487086 52.87880179 -58 57 C-48.16502979 78.37836248 -14.09365783 90.4132153 6.06396484 97.921875 C7.03285645 98.27765625 8.00174805 98.6334375 9 99 C9.82580566 99.30421875 10.65161133 99.6084375 11.50244141 99.921875 C33.29213786 107.77301696 63.37704298 117.22652983 86 109 C91.69761604 106.10479446 95.11311919 102.42151928 97.375 96.43359375 C98.82331205 90.79422872 99.13602528 86.10444027 96.33203125 80.91015625 C89.39324315 72.25119958 75.52859537 69.3850773 65.41430664 65.9831543 C35.5032333 55.76257041 19.19371994 33.09501867 2.78149414 7.48608398 C2.31348389 6.76622314 1.84547363 6.0463623 1.36328125 5.3046875 C0.95376221 4.66515137 0.54424316 4.02561523 0.12231445 3.36669922 C-0.24804932 2.91568848 -0.61841309 2.46467773 -1 2 C-3.12652316 1.77649907 -3.12652316 1.77649907 -4.6640625 3.50390625 Z " fill="#F2ECD9" transform="translate(271,313)" stroke="black" stroke-width="1" />
<path d="M0 0 C0.66 0.33 1.32 0.66 2 1 C-4.435 6.94 -4.435 6.94 -11 13 C-4.44738114 17.5988309 -4.44738114 17.5988309 2.13671875 22.15234375 C9.57281988 27.25625393 16.82717776 32.53314629 24 38 C27.36152609 36.54700171 29.50218106 34.70957052 32.0390625 32.0859375 C32.78414062 31.32539063 33.52921875 30.56484375 34.296875 29.78125 C35.06515625 28.9871875 35.8334375 28.193125 36.625 27.375 C38.15421728 25.79497816 39.68784633 24.21921026 41.2265625 22.6484375 C41.90283691 21.94895996 42.57911133 21.24948242 43.27587891 20.52880859 C45 19 45 19 47 19 C47 19.66 47 20.32 47 21 C45.70703125 22.26953125 45.70703125 22.26953125 43.8125 23.8125 C37.50477121 29.15418024 31.79990037 35.12052783 26 41 C20.93219669 39.4187668 17.33263512 36.32026566 13.25 33.0625 C6.50099408 27.75138067 -0.42366734 22.97706722 -7.81738281 18.60375977 C-9.87890625 17.33984375 -9.87890625 17.33984375 -13 15 C-13 13.68 -13 12.36 -13 11 C-10.87570635 8.91072218 -8.82189533 7.08917281 -6.5 5.25 C-5.87996094 4.74339844 -5.25992188 4.23679687 -4.62109375 3.71484375 C-3.08936514 2.46589581 -1.54577336 1.23152273 0 0 Z " fill="#F1EAD8" transform="translate(169,315)" stroke="black" stroke-width="1" />
<path d="M0 0 C1.24667039 2.46201741 2.44589441 4.93990693 3.62890625 7.43359375 C11.71026912 24.29867878 22.06603822 40.88171289 39 50 C37.68 50.66 36.36 51.32 35 52 C34.31808594 51.31550781 33.63617188 50.63101563 32.93359375 49.92578125 C30.85591672 47.84664158 28.76181121 45.78535364 26.66015625 43.73046875 C14.32715652 31.61800409 14.32715652 31.61800409 10 25 C10 24.34 10 23.68 10 23 C9.34 23 8.68 23 8 23 C6.45984969 19.92595107 4.94637913 16.83950288 3.4375 13.75 C2.99986328 12.87730469 2.56222656 12.00460938 2.11132812 11.10546875 C1.70205078 10.26113281 1.29277344 9.41679688 0.87109375 8.546875 C0.48880615 7.77182617 0.10651855 6.99677734 -0.28735352 6.19824219 C-1.10244103 3.68400855 -0.88207936 2.45320685 0 0 Z " fill="#F5EFDB" transform="translate(20,92)" stroke="black" stroke-width="1" />
</svg>